<?xml version="1.0" encoding="utf-8" standalone="no"?>
<!DOCTYPE svg PUBLIC "-//W3C//DTD SVG 1.1//EN"
  "http://www.w3.org/Graphics/SVG/1.1/DTD/svg11.dtd">
<svg xmlns:xlink="http://www.w3.org/1999/xlink" width="597.6pt" height="237.6pt" viewBox="0 0 597.6 237.6" xmlns="http://www.w3.org/2000/svg" version="1.1">
 <metadata>
  <rdf:RDF xmlns:dc="http://purl.org/dc/elements/1.1/" xmlns:cc="http://creativecommons.org/ns#" xmlns:rdf="http://www.w3.org/1999/02/22-rdf-syntax-ns#">
   <cc:Work>
    <dc:type rdf:resource="http://purl.org/dc/dcmitype/StillImage"/>
    <dc:date>2026-03-20T12:16:14.709844</dc:date>
    <dc:format>image/svg+xml</dc:format>
    <dc:creator>
     <cc:Agent>
      <dc:title>Matplotlib v3.8.2, https://matplotlib.org/</dc:title>
     </cc:Agent>
    </dc:creator>
   </cc:Work>
  </rdf:RDF>
 </metadata>
 <defs>
  <style type="text/css">*{stroke-linejoin: round; stroke-linecap: butt}</style>
 </defs>
 <g id="figure_1">
  <g id="patch_1">
   <path d="M 0 237.6 
L 597.6 237.6 
L 597.6 0 
L 0 0 
z
" style="fill: #f8fafc"/>
  </g>
  <g id="axes_1">
   <g id="patch_2">
    <path d="M 44.584615 195.325714 
C 45.576067 195.325714 46.527045 194.989746 47.228107 194.391803 
C 47.929169 193.79386 48.323077 192.982762 48.323077 192.137143 
C 48.323077 191.291524 47.929169 190.480425 47.228107 189.882482 
C 46.527045 189.284539 45.576067 188.948571 44.584615 188.948571 
C 43.593164 188.948571 42.642186 189.284539 41.941124 189.882482 
C 41.240062 190.480425 40.846154 191.291524 40.846154 192.137143 
C 40.846154 192.982762 41.240062 193.79386 41.941124 194.391803 
C 42.642186 194.989746 43.593164 195.325714 44.584615 195.325714 
z
" clip-path="url(#pe5efd3d70c)" style="fill: #0f172a; stroke: #0f172a; stroke-linejoin: miter"/>
   </g>
   <g id="patch_3">
    <path d="M 530.584615 195.325714 
C 531.576067 195.325714 532.527045 194.989746 533.228107 194.391803 
C 533.929169 193.79386 534.323077 192.982762 534.323077 192.137143 
C 534.323077 191.291524 533.929169 190.480425 533.228107 189.882482 
C 532.527045 189.284539 531.576067 188.948571 530.584615 188.948571 
C 529.593164 188.948571 528.642186 189.284539 527.941124 189.882482 
C 527.240062 190.480425 526.846154 191.291524 526.846154 192.137143 
C 526.846154 192.982762 527.240062 193.79386 527.941124 194.391803 
C 528.642186 194.989746 529.593164 195.325714 530.584615 195.325714 
z
" clip-path="url(#pe5efd3d70c)" style="fill: #0f172a; stroke: #0f172a; stroke-linejoin: miter"/>
   </g>
   <g id="line2d_1">
    <path d="M 44.584615 90.102857 
L 156.738462 90.102857 
" clip-path="url(#pe5efd3d70c)" style="fill: none; stroke: #0f172a; stroke-width: 2; stroke-linecap: square"/>
   </g>
   <g id="line2d_2">
    <path d="M 440.861538 90.102857 
L 530.584615 90.102857 
" clip-path="url(#pe5efd3d70c)" style="fill: none; stroke: #0f172a; stroke-width: 2; stroke-linecap: square"/>
   </g>
   <g id="line2d_3">
    <path d="M 44.584615 192.137143 
L 44.584615 90.102857 
" clip-path="url(#pe5efd3d70c)" style="fill: none; stroke: #0f172a; stroke-width: 2; stroke-linecap: square"/>
   </g>
   <g id="line2d_4">
    <path d="M 530.584615 192.137143 
L 530.584615 90.102857 
" clip-path="url(#pe5efd3d70c)" style="fill: none; stroke: #0f172a; stroke-width: 2; stroke-linecap: square"/>
   </g>
   <g id="line2d_5">
    <path d="M 44.584615 192.137143 
L 530.584615 192.137143 
" clip-path="url(#pe5efd3d70c)" style="fill: none; stroke: #0f172a; stroke-width: 2; stroke-linecap: square"/>
   </g>
   <g id="line2d_6">
    <path d="M 156.738462 90.102857 
L 171.692308 74.16 
L 190.384615 106.045714 
L 209.076923 74.16 
L 227.769231 106.045714 
L 246.461538 74.16 
L 265.153846 106.045714 
L 283.846154 74.16 
L 302.538462 106.045714 
L 321.230769 90.102857 
" clip-path="url(#pe5efd3d70c)" style="fill: none; stroke: #2563eb; stroke-width: 2.2; stroke-linecap: square"/>
   </g>
   <g id="line2d_7">
    <path d="M 366.092308 160.251429 
L 366.092308 90.102857 
" clip-path="url(#pe5efd3d70c)" style="fill: none; stroke: #dc2626; stroke-width: 2.3; stroke-linecap: square"/>
   </g>
   <g id="line2d_8">
    <path d="M 388.523077 160.251429 
L 388.523077 90.102857 
" clip-path="url(#pe5efd3d70c)" style="fill: none; stroke: #dc2626; stroke-width: 2.3; stroke-linecap: square"/>
   </g>
   <g id="line2d_9">
    <path d="M 321.230769 90.102857 
L 366.092308 90.102857 
" clip-path="url(#pe5efd3d70c)" style="fill: none; stroke: #0f172a; stroke-width: 2; stroke-linecap: square"/>
   </g>
   <g id="line2d_10">
    <path d="M 388.523077 90.102857 
L 440.861538 90.102857 
" clip-path="url(#pe5efd3d70c)" style="fill: none; stroke: #0f172a; stroke-width: 2; stroke-linecap: square"/>
   </g>
   <g id="text_1">
    <!-- R -->
    <g style="fill: #2563eb" transform="translate(238.984615 55.028571) scale(0.13 -0.13)">
     <defs>
      <path id="HiraginoSansGB-W3-52" d="M 4410 38 
C 4320 192 4230 384 4122 634 
C 3923 1075 3770 1408 3616 1709 
C 3386 2163 3226 2336 2963 2413 
C 3309 2490 3469 2566 3654 2733 
C 3917 2957 4038 3264 4038 3674 
C 4038 4467 3526 4902 2598 4902 
L 1190 4902 
C 896 4902 717 4909 493 4922 
C 531 4666 544 4461 544 4186 
L 544 755 
C 544 442 531 269 493 38 
L 1088 38 
C 1050 269 1037 435 1037 762 
L 1037 2259 
L 2221 2259 
C 2733 2259 2982 2010 3354 1133 
C 3622 493 3712 230 3731 38 
L 4410 38 
z
M 1037 2701 
L 1037 4461 
L 2592 4461 
C 3200 4461 3520 4166 3520 3622 
C 3520 3347 3443 3136 3277 2976 
C 3104 2803 2842 2701 2554 2701 
L 1037 2701 
z
" transform="scale(0.015625)"/>
     </defs>
     <use xlink:href="#HiraginoSansGB-W3-52"/>
    </g>
   </g>
   <g id="text_2">
    <!-- C -->
    <g style="fill: #dc2626" transform="translate(372.394099 55.028571) scale(0.13 -0.13)">
     <defs>
      <path id="HiraginoSansGB-W3-43" d="M 4461 3667 
C 4307 4064 4186 4256 3962 4474 
C 3616 4819 3130 4992 2528 4992 
C 1920 4992 1434 4806 1062 4448 
C 589 3981 333 3283 333 2458 
C 333 1658 576 960 1024 512 
C 1389 141 1907 -51 2522 -51 
C 3238 -51 3821 211 4179 691 
C 4333 896 4416 1075 4525 1453 
L 3994 1581 
C 3936 1286 3872 1126 3738 941 
C 3475 595 3046 403 2541 403 
C 1510 403 851 1210 851 2477 
C 851 3750 1504 4544 2541 4544 
C 3008 4544 3392 4384 3648 4083 
C 3782 3930 3853 3795 3949 3520 
L 4461 3667 
z
" transform="scale(0.015625)"/>
     </defs>
     <use xlink:href="#HiraginoSansGB-W3-43"/>
    </g>
   </g>
   <g id="patch_4">
    <path d="M 27.894566 42.274286 
Q 53.933511 42.274286 77.51278 42.274286 
" style="fill: none; stroke: #16a34a; stroke-width: 2.2; stroke-linecap: round"/>
    <path d="M 73.51278 40.274286 
L 77.51278 42.274286 
L 73.51278 44.274286 
" style="fill: none; stroke: #16a34a; stroke-width: 2.2; stroke-linecap: round"/>
   </g>
   <g id="text_3">
    <!-- $u_i$ -->
    <g style="fill: #16a34a" transform="translate(20.658462 37.810286) scale(0.12 -0.12)">
     <defs>
      <path id="DejaVuSans-Oblique-75" d="M 428 1388 
L 838 3500 
L 1416 3500 
L 1006 1409 
Q 975 1256 961 1147 
Q 947 1038 947 966 
Q 947 700 1109 554 
Q 1272 409 1569 409 
Q 2031 409 2368 721 
Q 2706 1034 2809 1563 
L 3194 3500 
L 3769 3500 
L 3091 0 
L 2516 0 
L 2631 550 
Q 2388 244 2052 76 
Q 1716 -91 1338 -91 
Q 878 -91 622 161 
Q 366 413 366 863 
Q 366 956 381 1097 
Q 397 1238 428 1388 
z
" transform="scale(0.015625)"/>
      <path id="DejaVuSans-Oblique-69" d="M 1172 4863 
L 1747 4863 
L 1606 4134 
L 1031 4134 
L 1172 4863 
z
M 909 3500 
L 1484 3500 
L 800 0 
L 225 0 
L 909 3500 
z
" transform="scale(0.015625)"/>
     </defs>
     <use xlink:href="#DejaVuSans-Oblique-75" transform="translate(0 0.3125)"/>
     <use xlink:href="#DejaVuSans-Oblique-69" transform="translate(63.378906 -16.09375) scale(0.7)"/>
    </g>
   </g>
   <g id="patch_5">
    <path d="M 454.079181 42.274286 
Q 480.118126 42.274286 503.697396 42.274286 
" style="fill: none; stroke: #7c3aed; stroke-width: 2.2; stroke-linecap: round"/>
    <path d="M 499.697396 40.274286 
L 503.697396 42.274286 
L 499.697396 44.274286 
" style="fill: none; stroke: #7c3aed; stroke-width: 2.2; stroke-linecap: round"/>
   </g>
   <g id="text_4">
    <!-- $u_o$ -->
    <g style="fill: #7c3aed" transform="translate(511.892308 37.810286) scale(0.12 -0.12)">
     <defs>
      <path id="DejaVuSans-Oblique-6f" d="M 1625 -91 
Q 1009 -91 651 289 
Q 294 669 294 1325 
Q 294 1706 417 2101 
Q 541 2497 738 2766 
Q 1047 3184 1428 3384 
Q 1809 3584 2291 3584 
Q 2888 3584 3255 3212 
Q 3622 2841 3622 2241 
Q 3622 1825 3500 1412 
Q 3378 1000 3181 728 
Q 2875 309 2494 109 
Q 2113 -91 1625 -91 
z
M 891 1344 
Q 891 869 1089 633 
Q 1288 397 1691 397 
Q 2269 397 2648 901 
Q 3028 1406 3028 2181 
Q 3028 2634 2825 2865 
Q 2622 3097 2228 3097 
Q 1903 3097 1650 2945 
Q 1397 2794 1197 2484 
Q 1050 2253 970 1956 
Q 891 1659 891 1344 
z
" transform="scale(0.015625)"/>
     </defs>
     <use xlink:href="#DejaVuSans-Oblique-75" transform="translate(0 0.3125)"/>
     <use xlink:href="#DejaVuSans-Oblique-6f" transform="translate(63.378906 -16.09375) scale(0.7)"/>
    </g>
   </g>
   <g id="text_5">
    <!-- $RC\dot{u}_o + u_o = u_i$ -->
    <g style="fill: #0f172a" transform="translate(246.184615 225.298286) scale(0.12 -0.12)">
     <defs>
      <path id="DejaVuSans-Oblique-52" d="M 1613 4147 
L 1294 2491 
L 2106 2491 
Q 2584 2491 2879 2755 
Q 3175 3019 3175 3444 
Q 3175 3784 2976 3965 
Q 2778 4147 2406 4147 
L 1613 4147 
z
M 2772 2241 
Q 2972 2194 3105 2009 
Q 3238 1825 3413 1275 
L 3809 0 
L 3144 0 
L 2778 1197 
Q 2638 1659 2453 1815 
Q 2269 1972 1888 1972 
L 1191 1972 
L 806 0 
L 172 0 
L 1081 4666 
L 2503 4666 
Q 3150 4666 3495 4373 
Q 3841 4081 3841 3531 
Q 3841 3044 3547 2687 
Q 3253 2331 2772 2241 
z
" transform="scale(0.015625)"/>
      <path id="DejaVuSans-Oblique-43" d="M 4447 4306 
L 4319 3641 
Q 4019 3944 3683 4091 
Q 3347 4238 2956 4238 
Q 2422 4238 2017 3981 
Q 1613 3725 1319 3200 
Q 1131 2863 1032 2486 
Q 934 2109 934 1728 
Q 934 1091 1264 756 
Q 1594 422 2222 422 
Q 2656 422 3056 561 
Q 3456 700 3834 978 
L 3688 231 
Q 3316 72 2936 -9 
Q 2556 -91 2175 -91 
Q 1278 -91 773 396 
Q 269 884 269 1753 
Q 269 2309 461 2846 
Q 653 3384 1013 3828 
Q 1394 4300 1883 4525 
Q 2372 4750 3022 4750 
Q 3422 4750 3780 4639 
Q 4138 4528 4447 4306 
z
" transform="scale(0.015625)"/>
      <path id="DejaVuSans-307" d="M -1894 4863 
L -1319 4863 
L -1319 4134 
L -1894 4134 
L -1894 4863 
z
M -1600 3584 
L -1600 3584 
z
" transform="scale(0.015625)"/>
      <path id="DejaVuSans-2b" d="M 2944 4013 
L 2944 2272 
L 4684 2272 
L 4684 1741 
L 2944 1741 
L 2944 0 
L 2419 0 
L 2419 1741 
L 678 1741 
L 678 2272 
L 2419 2272 
L 2419 4013 
L 2944 4013 
z
" transform="scale(0.015625)"/>
      <path id="DejaVuSans-3d" d="M 678 2906 
L 4684 2906 
L 4684 2381 
L 678 2381 
L 678 2906 
z
M 678 1631 
L 4684 1631 
L 4684 1100 
L 678 1100 
L 678 1631 
z
" transform="scale(0.015625)"/>
     </defs>
     <use xlink:href="#DejaVuSans-Oblique-52" transform="translate(0 0.828125)"/>
     <use xlink:href="#DejaVuSans-Oblique-43" transform="translate(69.482422 0.828125)"/>
     <use xlink:href="#DejaVuSans-307" transform="translate(203.745117 12.015625)"/>
     <use xlink:href="#DejaVuSans-Oblique-75" transform="translate(139.306641 0.828125)"/>
     <use xlink:href="#DejaVuSans-Oblique-6f" transform="translate(203.642578 -15.578125) scale(0.7)"/>
     <use xlink:href="#DejaVuSans-2b" transform="translate(268.686523 0.828125)"/>
     <use xlink:href="#DejaVuSans-Oblique-75" transform="translate(371.958008 0.828125)"/>
     <use xlink:href="#DejaVuSans-Oblique-6f" transform="translate(435.336914 -15.578125) scale(0.7)"/>
     <use xlink:href="#DejaVuSans-3d" transform="translate(500.380859 0.828125)"/>
     <use xlink:href="#DejaVuSans-Oblique-75" transform="translate(603.652344 0.828125)"/>
     <use xlink:href="#DejaVuSans-Oblique-69" transform="translate(667.03125 -15.578125) scale(0.7)"/>
    </g>
   </g>
  </g>
 </g>
 <defs>
  <clipPath id="pe5efd3d70c">
   <rect x="7.2" y="7.2" width="583.2" height="223.2"/>
  </clipPath>
 </defs>
</svg>
